M48
; DRILL file {KiCad 7.0.9} date Wed Jun 12 11:08:55 2024
; FORMAT={-:-/ absolute / metric / decimal}
; #@! TF.CreationDate,2024-06-12T11:08:55+01:00
; #@! TF.GenerationSoftware,Kicad,Pcbnew,7.0.9
; #@! TF.FileFunction,Plated,1,2,PTH
FMAT,2
METRIC
; #@! TA.AperFunction,Plated,PTH,ComponentDrill
T1C0.200
; #@! TA.AperFunction,Plated,PTH,ViaDrill
T2C0.400
; #@! TA.AperFunction,Plated,PTH,ComponentDrill
T3C0.700
; #@! TA.AperFunction,Plated,PTH,ComponentDrill
T4C0.750
; #@! TA.AperFunction,Plated,PTH,ComponentDrill
T5C0.800
; #@! TA.AperFunction,Plated,PTH,ComponentDrill
T6C1.000
%
G90
G05
T1
X187.45Y-47.237
X187.45Y-48.762
X188.213Y-46.475
X188.213Y-48.0
X188.213Y-49.525
X188.975Y-47.237
X188.975Y-48.762
X189.737Y-46.475
X189.737Y-48.0
X189.737Y-49.525
X190.5Y-47.237
X190.5Y-48.762
T2
X183.515Y-60.325
X203.835Y-55.88
X205.74Y-52.705
X209.55Y-58.42
X212.725Y-59.055
T3
X176.53Y-42.545
X176.53Y-50.165
X211.947Y-47.625
X211.947Y-55.245
X214.63Y-47.625
X214.63Y-55.245
X217.027Y-47.625
X217.027Y-55.245
T4
X164.465Y-54.25
X165.735Y-54.25
X167.005Y-54.25
T5
X165.735Y-64.135
X168.235Y-64.135
X170.22Y-48.26
X172.72Y-48.26
X172.76Y-64.135
X175.26Y-64.135
T6
X167.64Y-41.3
X170.18Y-41.3
X170.2Y-70.435
X172.74Y-70.435
X175.28Y-70.435
X177.82Y-70.435
X182.245Y-70.485
X184.785Y-70.485
X187.325Y-70.485
X189.865Y-70.485
X194.33Y-70.435
X196.87Y-70.435
X199.41Y-70.435
X201.95Y-70.435
X203.215Y-43.155
X205.755Y-43.155
X206.395Y-70.435
X208.295Y-43.155
X208.935Y-70.435
X211.475Y-70.435
X212.105Y-43.155
X214.015Y-70.435
X214.645Y-43.155
X217.185Y-43.155
X218.46Y-70.435
X220.995Y-43.155
X221.0Y-70.435
X223.535Y-43.155
X223.54Y-70.435
X226.075Y-43.155
X226.08Y-70.435
X229.87Y-46.99
X229.87Y-49.53
X229.87Y-52.07
X229.87Y-54.61
X229.87Y-57.15
X229.87Y-59.69
T0
M30
